<?xml version="1.0" encoding="utf-8"?>
<!-- Generator: Adobe Illustrator 22.1.0, SVG Export Plug-In . SVG Version: 6.00 Build 0)  -->
<svg version="1.1" id="Layer_1" xmlns="http://www.w3.org/2000/svg" xmlns:xlink="http://www.w3.org/1999/xlink" x="0px" y="0px"
	 width="241.1px" height="62.4px" viewBox="0 0 241.1 62.4" style="enable-background:new 0 0 241.1 62.4;" xml:space="preserve">
<g>
	<path style="fill:#66FF66;" d="M180.5,2.4v60h60v-60H180.5z M210.5,48.4c-8.9,0-16.1-7.2-16.1-16.1s7.2-16.1,16.1-16.1
		s16.1,7.2,16.1,16.1S219.4,48.4,210.5,48.4z"/>
	<g>
		<path style="fill:#2568EF;" d="M23.2,39.7c0,5.3-5.4,8.8-11.3,8.8c-5.9,0-10-3-11.9-6.2l5-3.2c1.5,2.6,4,4,6.9,4.1
			c2.5,0.1,4.4-0.8,5-2.5c0.5-1.6-0.3-3.2-2.2-4c-1.7-0.7-6.3-2.9-7.3-3.3c-3.5-1.7-5.9-3.8-5.9-7.9c-0.1-5.3,4.7-8.9,10.6-8.9
			c5,0,8.6,2.3,10.7,5.6L17.8,25c-1-1.7-3-3.4-5.6-3.4c-3,0-4.6,1.4-5,3c-0.3,1.8,1,3.1,3,3.9c1.3,0.6,5.7,2.7,7.3,3.4
			C20.6,33.4,23.2,35.7,23.2,39.7z"/>
		<path style="fill:#2568EF;" d="M42.7,46.5c-1.6,1-3.8,1.7-5.8,1.7c-4.3,0-6.6-3.2-6.6-7.2V30.3h-4.9V26h5v-6.7h5.6V26h6.5v4.3
			h-6.4v10.4c0,1.9,0.9,2.6,2.6,2.6c0.8,0.1,1.8-0.3,2.3-0.6L42.7,46.5z"/>
		<path style="fill:#2568EF;" d="M63.4,38.9H49.8c0.8,2.5,3.2,4.3,5.6,4.3c2.3,0,4.1-1,5-2c0.2-0.3,0.5-0.6,0.5-0.6l4,3.4
			c-1.7,2.1-5.1,4.2-9.4,4.2c-6.2,0-11.3-5.1-11.3-11.4s5.2-11.4,11.3-11.4c3.5,0,7.1,1.7,9.1,4.6c1.4,1.9,2,3.9,2,6.2
			C66.5,37.6,65.5,38.9,63.4,38.9z M49.7,34.9h11.1c-0.5-1.9-2.2-4.2-5.4-4.2C52.7,30.6,50.5,32.5,49.7,34.9z"/>
		<path style="fill:#2568EF;" d="M92.5,35.6v12.1h-5.5v-12c0-2.8-2.3-5-5.1-5s-5.1,2.1-5.1,5.3v11.6h-5.5V26h5.1v2.5
			c1.7-2.1,4.2-3,6.7-3C88.8,25.5,92.5,29.9,92.5,35.6z"/>
		<path style="fill:#2568EF;" d="M118,44c-2.1,2.7-5.6,4.4-9.3,4.4c-6.4,0-11.8-5.2-11.8-11.5s5.4-11.5,11.8-11.5
			c3.7,0,7.1,1.7,9.2,4.3l-4.5,3.1c-1.1-1.3-2.9-2-4.7-2c-3.4,0-6.1,2.7-6.1,6.2c0,3.4,2.7,6.2,6.1,6.2c1.9,0,3.8-0.8,4.9-2.2
			L118,44z"/>
		<path style="fill:#2568EF;" d="M120.9,20.3c0-1.8,1.6-3.3,3.6-3.3c1.9,0,3.5,1.5,3.5,3.3c0,1.8-1.6,3.3-3.5,3.3
			C122.5,23.6,120.9,22.1,120.9,20.3z M121.6,26h5.5v21.7h-5.5V26z"/>
		<path style="fill:#2568EF;" d="M141.1,43.3l1.5,3.7c-1.5,0.9-3.2,1.3-4.2,1.3c-3.5,0-5.5-2.5-5.5-6.1V17h5.6v24.8
			c0,0.6,0.3,1,0.6,1.3C139.5,43.3,140,43.5,141.1,43.3z"/>
		<path style="fill:#2568EF;" d="M166.6,26v21.7h-5.1v-2.3c-1.6,1.8-4.1,3-6.8,3c-6.4,0-11.3-5.2-11.3-11.5
			c0-6.4,4.9-11.5,11.3-11.5c2.7,0,5.3,1.2,6.8,2.9V26L166.6,26z M161,39.3v-4.9c-1-2.2-3.2-3.8-5.7-3.8c-1.3,0-2.6,0.4-3.6,1.1
			c-1.6,1.1-2.7,3-2.7,5.1s1.1,4,2.7,5.1c1,0.7,2.2,1.1,3.6,1.1C157.8,43.1,160,41.5,161,39.3z"/>
	</g>
	<circle style="fill:#2568EF;" cx="224.5" cy="32.4" r="16.1"/>
	<path style="fill:#0F6860;" d="M224.5,16.3c-2.5,0-4.9,0.6-6.9,1.6c5.4,2.6,9.1,8.1,9.1,14.5c0,6.4-3.7,11.9-9.1,14.5
		c2.1,1,4.5,1.6,6.9,1.6c8.9,0,16.1-7.2,16.1-16.1S233.3,16.3,224.5,16.3z"/>
</g>
</svg>
