<svg width="40" height="160" viewBox="0 0 40 160" fill="none" xmlns="http://www.w3.org/2000/svg">
<path d="M16.225 64.2167C12.6917 64.2167 10.3583 60.6167 10.3583 56.6833C10.3583 52.75 12.3583 50.0167 14.4917 48.75L16.625 52.0833C14.8917 53.0833 13.9583 54.75 13.8917 56.6833C13.825 58.35 14.425 59.6167 15.5583 60.0167C16.625 60.35 17.6917 59.8167 18.225 58.55C18.6917 57.4167 20.1583 54.35 20.425 53.6833C21.5583 51.35 22.9583 49.75 25.6917 49.75C29.225 49.6833 31.625 52.8833 31.625 56.8167C31.625 60.15 30.0917 62.55 27.8917 63.95L26.025 60.6167C27.1583 59.95 28.2917 58.6167 28.2917 56.8833C28.2917 54.8833 27.3583 53.8167 26.2917 53.55C25.0917 53.35 24.225 54.2167 23.6917 55.55C23.2917 56.4167 21.8917 59.35 21.425 60.4167C20.425 62.4833 18.8917 64.2167 16.225 64.2167Z" fill="#2568EF"/>
<path d="M11.6916 77.2167C11.025 76.1501 10.5583 74.6834 10.5583 73.3501C10.5583 70.4834 12.6916 68.9501 15.3583 68.9501L22.4916 68.9501L22.4916 65.6834L25.3583 65.6834L25.3583 69.0167L29.825 69.0167L29.825 72.7501L25.3583 72.7501L25.3583 77.0834L22.4916 77.0834L22.4916 72.8167L15.5583 72.8167C14.2916 72.8167 13.825 73.4167 13.825 74.5501C13.7583 75.0834 14.025 75.7501 14.225 76.0834L11.6916 77.2167Z" fill="#2568EF"/>
<path d="M16.7583 91.0167L16.7583 81.95C15.0917 82.4833 13.8917 84.0833 13.8917 85.6833C13.8917 87.2167 14.5583 88.4167 15.225 89.0167C15.425 89.15 15.625 89.35 15.625 89.35L13.3583 92.0167C11.9583 90.8833 10.5583 88.6167 10.5583 85.75C10.5583 81.6167 13.9583 78.2167 18.1583 78.2167C22.3583 78.2167 25.7583 81.6833 25.7583 85.75C25.7583 88.0833 24.625 90.4833 22.6917 91.8167C21.425 92.75 20.0917 93.15 18.5583 93.15C17.625 93.0833 16.7583 92.4167 16.7583 91.0167ZM19.425 81.8833L19.425 89.2833C20.6917 88.95 22.225 87.8167 22.225 85.6833C22.2917 83.8833 21.025 82.4167 19.425 81.8833Z" fill="#2568EF"/>
<path d="M18.9583 109.75L10.8917 109.75L10.8917 106.083L18.8917 106.083C20.7583 106.083 22.225 104.55 22.225 102.683C22.225 100.817 20.825 99.2834 18.6917 99.2834L10.9583 99.2834L10.9583 95.6167L25.3583 95.6167L25.3583 99.0167L23.6917 99.0167C25.0917 100.15 25.6917 101.817 25.6917 103.483C25.6917 107.283 22.7583 109.75 18.9583 109.75Z" fill="#2568EF"/>
<path d="M13.3583 126.75C11.5583 125.35 10.425 123.017 10.425 120.55C10.425 116.283 13.8917 112.683 18.0917 112.683C22.2917 112.683 25.7583 116.283 25.7583 120.55C25.7583 123.017 24.625 125.283 22.8917 126.683L20.825 123.683C21.6917 122.95 22.1583 121.75 22.1583 120.55C22.1583 118.283 20.3583 116.483 18.025 116.483C15.7583 116.483 13.8917 118.283 13.8917 120.55C13.8917 121.817 14.425 123.083 15.3583 123.817L13.3583 126.75Z" fill="#2568EF"/>
<path d="M29.1583 128.683C30.3583 128.683 31.3583 129.75 31.3583 131.083C31.3583 132.35 30.3583 133.417 29.1583 133.417C27.9583 133.417 26.9583 132.35 26.9583 131.083C26.9583 129.75 27.9583 128.683 29.1583 128.683ZM25.3583 129.15L25.3583 132.817L10.8917 132.817L10.8917 129.15L25.3583 129.15Z" fill="#2568EF"/>
<path d="M13.825 142.15L11.3583 143.15C10.7583 142.15 10.4917 141.017 10.4917 140.35C10.4917 138.017 12.1583 136.683 14.5583 136.683L31.3583 136.683L31.3583 140.417L14.825 140.417C14.425 140.417 14.1583 140.617 13.9583 140.817C13.825 141.083 13.6917 141.417 13.825 142.15Z" fill="#2568EF"/>
<path d="M25.3583 159.15L10.8917 159.15L10.8917 155.75L12.425 155.75C11.225 154.683 10.425 153.017 10.425 151.217C10.425 146.95 13.8917 143.683 18.0917 143.683C22.3583 143.683 25.7583 146.95 25.7583 151.217C25.7583 153.017 24.9583 154.75 23.825 155.75L25.3583 155.75L25.3583 159.15ZM16.4917 155.417L19.7583 155.417C21.225 154.75 22.2917 153.283 22.2917 151.617C22.2917 150.75 22.025 149.883 21.5583 149.217C20.825 148.15 19.5583 147.417 18.1583 147.417C16.7583 147.417 15.4917 148.15 14.7583 149.217C14.2917 149.883 14.025 150.683 14.025 151.617C13.9583 153.283 15.025 154.75 16.4917 155.417Z" fill="#2568EF"/>
<path d="M0 0V40H40V0H0ZM20 30.6667C14.0667 30.6667 9.26666 25.8667 9.26666 19.9333C9.26666 14 14.0667 9.2 20 9.2C25.9333 9.2 30.7333 14 30.7333 19.9333C30.7333 25.8667 25.9333 30.6667 20 30.6667Z" fill="#66FF66"/>
<path d="M29.0667 30.7333C34.9945 30.7333 39.8 25.9279 39.8 20C39.8 14.0721 34.9945 9.26666 29.0667 9.26666C23.1388 9.26666 18.3333 14.0721 18.3333 20C18.3333 25.9279 23.1388 30.7333 29.0667 30.7333Z" fill="#2568EF"/>
<path d="M29.0666 9.26666C27.4 9.26666 25.8 9.66666 24.4666 10.3333C28.0666 12.0667 30.5333 15.7333 30.5333 20C30.5333 24.2667 28.0666 27.9333 24.4666 29.6667C25.8666 30.3333 27.4666 30.7333 29.0666 30.7333C35 30.7333 39.8 25.9333 39.8 20C39.8 14.0667 34.9333 9.26666 29.0666 9.26666Z" fill="#0F6860"/>
</svg>
