<svg fill="none" height="64" viewBox="0 0 257 64" width="257" xmlns="http://www.w3.org/2000/svg"><path d="m192.64 0v64h64v-64zm32 49.0667c-9.493 0-17.173-7.68-17.173-17.1734 0-9.4933 7.68-17.1733 17.173-17.1733s17.173 7.68 17.173 17.1733c0 9.4934-7.68 17.1734-17.173 17.1734z" fill="#6f6"/><path d="m239.147 49.1733c9.484 0 17.173-7.6887 17.173-17.1733s-7.689-17.1733-17.173-17.1733c-9.485 0-17.174 7.6887-17.174 17.1733s7.689 17.1733 17.174 17.1733z" fill="#2568ef"/><path d="m239.147 14.8267c-2.667 0-5.227.64-7.36 1.7066 5.76 2.7734 9.706 8.64 9.706 15.4667s-3.946 12.6933-9.706 15.4667c2.24 1.0666 4.8 1.7066 7.36 1.7066 9.493 0 17.173-7.68 17.173-17.1733s-7.787-17.1733-17.173-17.1733z" fill="#0f6860"/><g fill="#2568ef"><path d="m25.3867 39.64c0 5.6533-5.76 9.3867-12.0534 9.3867-6.29329 0-10.66662-3.2-12.693285-6.6134l5.333335-3.4133c1.6 2.7733 4.26665 4.2667 7.35995 4.3733 2.6667.1067 4.6934-.8533 5.3334-2.6666.5333-1.7067-.32-3.4134-2.3467-4.2667-1.8133-.7467-6.71998-3.0933-7.78665-3.52-3.73334-1.8133-6.29334-4.0533-6.29334-8.4267-.10666-5.6533 5.01334-9.4933 11.30669-9.4933 5.3333 0 9.1733 2.4533 11.4133 5.9733l-5.3333 2.9867c-1.0667-1.8133-3.2-3.6267-5.9734-3.6267-3.2 0-4.90662 1.4934-5.33329 3.2-.32 1.92 1.06667 3.3067 3.19999 4.16 1.3867.64 6.08 2.88 7.7867 3.6267 3.3066 1.6 6.08 4.0533 6.08 8.32z"/><path d="m46.1867 46.8933c-1.7067 1.0667-4.0533 1.8134-6.1867 1.8134-4.5866 0-7.04-3.4134-7.04-7.68v-11.4134h-5.2266v-4.5866h5.3333v-7.1467h5.9733v7.1467h6.9334v4.5866h-6.8267v11.0934c0 2.0266.96 2.7733 2.7733 2.7733.8534.1067 1.92-.32 2.4534-.64z"/><path d="m68.2667 38.7867h-14.5067c.8533 2.6666 3.4134 4.5866 5.9733 4.5866 2.4534 0 4.3734-1.0666 5.3334-2.1333.2133-.32.5333-.64.5333-.64l4.2667 3.6267c-1.8133 2.24-5.44 4.48-10.0267 4.48-6.6133 0-12.0533-5.44-12.0533-12.16s5.5466-12.16 12.0533-12.16c3.7333 0 7.5733 1.8133 9.7067 4.9066 1.4933 2.0267 2.1333 4.16 2.1333 6.6134-.1067 1.4933-1.1733 2.88-3.4133 2.88zm-14.6134-4.2667h11.84c-.5333-2.0267-2.3466-4.48-5.76-4.48-2.88-.1067-5.2266 1.92-6.08 4.48z"/><path d="m98.24 35.2667v12.9066h-5.8667v-12.8c0-2.9866-2.4533-5.3333-5.44-5.3333-2.9866 0-5.44 2.24-5.44 5.6533v12.3734h-5.8666v-23.04h5.44v2.6666c1.8133-2.24 4.48-3.2 7.1466-3.2 6.08 0 10.0267 4.6934 10.0267 10.7734z"/><path d="m125.44 44.2267c-2.24 2.88-5.973 4.6933-9.92 4.6933-6.827 0-12.587-5.5467-12.587-12.2667s5.76-12.2666 12.587-12.2666c3.947 0 7.573 1.8133 9.813 4.5866l-4.8 3.3067c-1.173-1.3867-3.093-2.1333-5.013-2.1333-3.627 0-6.507 2.88-6.507 6.6133 0 3.6267 2.88 6.6133 6.507 6.6133 2.027 0 4.053-.8533 5.227-2.3466z"/><path d="m128.533 18.9467c0-1.92 1.707-3.52 3.84-3.52 2.027 0 3.734 1.6 3.734 3.52s-1.707 3.52-3.734 3.52c-2.133 0-3.84-1.6-3.84-3.52zm.747 6.08h5.867v23.1466h-5.867z"/><path d="m150.08 43.48 1.6 3.9467c-1.6.96-3.413 1.3866-4.48 1.3866-3.733 0-5.867-2.6666-5.867-6.5066v-26.88h5.974v26.4533c0 .64.32 1.0667.64 1.3867.426.2133.96.4266 2.133.2133z"/><path d="m177.28 25.0267v23.1466h-5.44v-2.4533c-1.707 1.92-4.373 3.2-7.253 3.2-6.827 0-12.054-5.5467-12.054-12.2667 0-6.8266 5.227-12.2666 12.054-12.2666 2.88 0 5.653 1.28 7.253 3.0933v-2.4533zm-5.973 14.1866v-5.2266c-1.067-2.3467-3.414-4.0534-6.08-4.0534-1.387 0-2.774.4267-3.84 1.1734-1.707 1.1733-2.88 3.2-2.88 5.44s1.173 4.2666 2.88 5.44c1.066.7466 2.346 1.1733 3.84 1.1733 2.666.1067 5.013-1.6 6.08-3.9467z"/></g></svg>