<svg xmlns="http://www.w3.org/2000/svg" xmlns:xlink="http://www.w3.org/1999/xlink" viewBox="0 0 600 600"><defs><style>.cls-1{isolation:isolate;}.cls-2{fill:#e6e7e8;}.cls-3{fill:#fff;}.cls-4{fill:#2568ef;}.cls-5{fill:#6f6;}.cls-12,.cls-6,.cls-9{fill:none;}.cls-6{stroke:#e6e7e8;stroke-width:1.17px;mix-blend-mode:multiply;}.cls-12,.cls-6{stroke-linecap:round;}.cls-12,.cls-18,.cls-6,.cls-9{stroke-miterlimit:10;}.cls-7{fill:url(#linear-gradient);}.cls-11,.cls-8{fill:#6c6;}.cls-12,.cls-18,.cls-9{stroke:#fff;}.cls-12,.cls-9{stroke-width:0.5px;}.cls-9{opacity:0.5;}.cls-10{fill:url(#linear-gradient-2);}.cls-11,.cls-12,.cls-13{opacity:0.4;}.cls-14{opacity:0.2;}.cls-15{fill:#231f20;}.cls-16{fill:#1c3fa2;}.cls-17{fill:#1c4fb5;}.cls-18{stroke-width:0.25px;opacity:0.3;fill:url(#linear-gradient-3);}</style><linearGradient id="linear-gradient" x1="302.08" y1="396.17" x2="302.08" y2="250.07" gradientUnits="userSpaceOnUse"><stop offset="0" stop-color="#231f20" stop-opacity="0"/><stop offset="1" stop-color="#231f20" stop-opacity="0.2"/></linearGradient><linearGradient id="linear-gradient-2" x1="300.41" y1="329.05" x2="300.41" y2="202.03" gradientUnits="userSpaceOnUse"><stop offset="0" stop-color="#6f6" stop-opacity="0"/><stop offset="0.3" stop-color="#66fd66" stop-opacity="0.03"/><stop offset="1" stop-color="#6c6" stop-opacity="0.5"/></linearGradient><linearGradient id="linear-gradient-3" x1="298.73" y1="152.67" x2="298.73" y2="106.81" gradientUnits="userSpaceOnUse"><stop offset="0" stop-color="#2568ef" stop-opacity="0"/><stop offset="0.3" stop-color="#2568ef" stop-opacity="0.03"/><stop offset="1" stop-color="#2568ef" stop-opacity="0.7"/></linearGradient></defs><title>Schematic_Stencil_bars</title><g class="cls-1"><g id="Layer_1" data-name="Layer 1"><rect class="cls-2" width="600" height="600"/><path class="cls-3" d="M300,279.07,485.43,386.13,300,493.19,114.57,386.13Z"/><polygon class="cls-4" points="282.87 380.59 351.91 420.45 374.92 407.16 305.88 367.31 282.87 380.59"/><polygon class="cls-4" points="224.77 413.68 293.8 453.53 316.81 440.25 247.78 400.39 224.77 413.68"/><polygon class="cls-4" points="337.75 378.4 381.12 403.47 404.13 390.18 360.76 365.11 337.75 378.4"/><polygon class="cls-5" points="212.74 373.07 323.43 437.03 346.44 423.74 235.75 359.78 212.74 373.07"/><line class="cls-6" x1="302.36" y1="320.35" x2="178.51" y2="391.86"/><line class="cls-6" x1="324.12" y1="333.51" x2="200.26" y2="405.02"/><line class="cls-6" x1="345.88" y1="346.67" x2="222.02" y2="418.17"/><line class="cls-6" x1="367.63" y1="359.82" x2="243.78" y2="431.33"/><line class="cls-6" x1="389.39" y1="372.98" x2="265.54" y2="444.48"/><line class="cls-6" x1="411.15" y1="386.13" x2="287.3" y2="457.64"/><path class="cls-7" d="M278.64,294.6q1.44-.83,2.2.35a7.57,7.57,0,0,1,.76,3.92,13.85,13.85,0,0,1-.76,4.8,5.26,5.26,0,0,1-2.2,2.89q-1.44.83-2.2-.35a7.55,7.55,0,0,1-.76-3.92,13.8,13.8,0,0,1,.76-4.79A5.27,5.27,0,0,1,278.64,294.6ZM277,303.93l2.92-7.8q-.28-.51-.6-.56a1,1,0,0,0-.67.15,3.46,3.46,0,0,0-1.38,2.15,13.18,13.18,0,0,0-.47,3.69q0,.47,0,1A9.47,9.47,0,0,0,277,303.93Zm3.29-6.66-2.9,7.82a1,1,0,0,0,.54.48.86.86,0,0,0,.68-.13,3.56,3.56,0,0,0,1.47-2.39,15.56,15.56,0,0,0,.44-3.68A9.21,9.21,0,0,0,280.27,297.27Zm4.81,4.09v-8.7q-.46.75-.89,1.34a14.36,14.36,0,0,1-1.18,1.38v-1.22a17,17,0,0,0,2.07-2.95l1-.59v10.15l2-1.17v1.13l-5.12,3v-1.13Zm6.7-3.87v-8.7q-.46.75-.89,1.34a14.36,14.36,0,0,1-1.18,1.38v-1.22a17,17,0,0,0,2.07-2.95l1-.59v10.15l2-1.17v1.13l-5.12,3v-1.13Zm6.95-14.5q1.44-.83,2.2.35a7.57,7.57,0,0,1,.76,3.92,13.85,13.85,0,0,1-.76,4.8,5.26,5.26,0,0,1-2.2,2.89q-1.44.83-2.2-.35a7.55,7.55,0,0,1-.76-3.92,13.8,13.8,0,0,1,.76-4.79A5.27,5.27,0,0,1,298.73,283Zm-1.65,9.34,2.92-7.8q-.28-.51-.6-.56a1,1,0,0,0-.67.15,3.46,3.46,0,0,0-1.38,2.15,13.18,13.18,0,0,0-.47,3.69q0,.47,0,1A9.47,9.47,0,0,0,297.08,292.33Zm3.29-6.66-2.9,7.82a1,1,0,0,0,.54.48.86.86,0,0,0,.68-.13,3.56,3.56,0,0,0,1.47-2.39,15.56,15.56,0,0,0,.44-3.68A9.21,9.21,0,0,0,300.37,285.67Zm5.06-6.54q1.44-.83,2.2.35a7.57,7.57,0,0,1,.76,3.92,13.85,13.85,0,0,1-.76,4.8,5.26,5.26,0,0,1-2.2,2.89q-1.44.83-2.2-.35a7.55,7.55,0,0,1-.76-3.92,13.8,13.8,0,0,1,.76-4.79A5.27,5.27,0,0,1,305.43,279.13Zm-1.65,9.34,2.92-7.8q-.28-.51-.6-.56a1,1,0,0,0-.67.15,3.46,3.46,0,0,0-1.38,2.15,13.18,13.18,0,0,0-.47,3.69q0,.47,0,1A9.47,9.47,0,0,0,303.78,288.47Zm3.29-6.66-2.9,7.82a1,1,0,0,0,.54.48.86.86,0,0,0,.68-.13,3.56,3.56,0,0,0,1.47-2.39,15.56,15.56,0,0,0,.44-3.68A9.21,9.21,0,0,0,307.06,281.81Zm4.81,4.09v-8.7q-.46.75-.89,1.34a14.36,14.36,0,0,1-1.18,1.38v-1.22a17,17,0,0,0,2.07-2.95l1-.59v10.15l2-1.17v1.13l-5.12,3v-1.13Zm6.95-14.5q1.44-.83,2.2.35a7.57,7.57,0,0,1,.76,3.92,13.85,13.85,0,0,1-.76,4.8,5.26,5.26,0,0,1-2.2,2.89q-1.44.83-2.2-.35a7.55,7.55,0,0,1-.76-3.92,13.8,13.8,0,0,1,.76-4.79A5.27,5.27,0,0,1,318.82,271.4Zm-1.65,9.34,2.92-7.8q-.28-.51-.6-.56a1,1,0,0,0-.67.15,3.46,3.46,0,0,0-1.38,2.15,13.18,13.18,0,0,0-.47,3.69q0,.47,0,1A9.47,9.47,0,0,0,317.17,280.74Zm3.29-6.66-2.9,7.82a1,1,0,0,0,.54.48.86.86,0,0,0,.68-.13,3.56,3.56,0,0,0,1.47-2.39,15.56,15.56,0,0,0,.44-3.68A9.21,9.21,0,0,0,320.46,274.07Zm4.81,4.09v-8.7q-.46.75-.89,1.34a14.36,14.36,0,0,1-1.18,1.38V271a17,17,0,0,0,2.07-2.95l1-.59v10.15l2-1.17v1.13l-5.12,3v-1.13Zm-46.63,34.29q1.44-.83,2.2.35a7.57,7.57,0,0,1,.76,3.92,13.85,13.85,0,0,1-.76,4.8,5.26,5.26,0,0,1-2.2,2.89q-1.44.83-2.2-.35a7.55,7.55,0,0,1-.76-3.92,13.8,13.8,0,0,1,.76-4.79A5.27,5.27,0,0,1,278.64,312.45ZM277,321.79l2.92-7.8q-.28-.51-.6-.56a1,1,0,0,0-.67.15,3.46,3.46,0,0,0-1.38,2.15,13.18,13.18,0,0,0-.47,3.69q0,.47,0,1A9.47,9.47,0,0,0,277,321.79Zm3.29-6.66-2.9,7.82a1,1,0,0,0,.54.48.86.86,0,0,0,.68-.13,3.56,3.56,0,0,0,1.47-2.39,15.56,15.56,0,0,0,.44-3.68A9.21,9.21,0,0,0,280.27,315.13Zm4.81,4.09v-8.7q-.46.75-.89,1.34a14.36,14.36,0,0,1-1.18,1.38V312a17,17,0,0,0,2.07-2.95l1-.59v10.15l2-1.17v1.13l-5.12,3v-1.13Zm6.7-3.87v-8.7q-.46.75-.89,1.34a14.36,14.36,0,0,1-1.18,1.38v-1.22a17,17,0,0,0,2.07-2.95l1-.59v10.15l2-1.17v1.13l-5.12,3v-1.13Zm6.95-14.5q1.44-.83,2.2.35a7.57,7.57,0,0,1,.76,3.92,13.85,13.85,0,0,1-.76,4.8,5.26,5.26,0,0,1-2.2,2.89q-1.44.83-2.2-.35a7.55,7.55,0,0,1-.76-3.92,13.8,13.8,0,0,1,.76-4.79A5.27,5.27,0,0,1,298.73,300.85Zm-1.65,9.34,2.92-7.8q-.28-.51-.6-.56a1,1,0,0,0-.67.15,3.46,3.46,0,0,0-1.38,2.15,13.18,13.18,0,0,0-.47,3.69q0,.47,0,1A9.47,9.47,0,0,0,297.08,310.19Zm3.29-6.66-2.9,7.82a1,1,0,0,0,.54.48.86.86,0,0,0,.68-.13,3.56,3.56,0,0,0,1.47-2.39,15.56,15.56,0,0,0,.44-3.68A9.21,9.21,0,0,0,300.37,303.53Zm4.81,4.09v-8.7q-.46.75-.89,1.34a14.36,14.36,0,0,1-1.18,1.38v-1.22a17,17,0,0,0,2.07-2.95l1-.59V307l2-1.17V307l-5.12,3v-1.13Zm6.7-3.87v-8.7q-.46.75-.89,1.34a14.36,14.36,0,0,1-1.18,1.38v-1.22a17,17,0,0,0,2.07-2.95l1-.59v10.15l2-1.17v1.13l-5.12,3v-1.13Zm6.7-3.87v-8.7q-.46.75-.89,1.34a14.36,14.36,0,0,1-1.18,1.38v-1.22a17,17,0,0,0,2.07-2.95l1-.59V299.3l2-1.17v1.13l-5.12,3v-1.13Zm6.95-14.5q1.44-.83,2.2.35a7.57,7.57,0,0,1,.76,3.92,13.85,13.85,0,0,1-.76,4.8,5.26,5.26,0,0,1-2.2,2.89q-1.44.83-2.2-.35a7.55,7.55,0,0,1-.76-3.92,13.8,13.8,0,0,1,.76-4.79A5.27,5.27,0,0,1,325.52,285.39Zm-1.65,9.34,2.92-7.8q-.28-.51-.6-.56a1,1,0,0,0-.67.15,3.46,3.46,0,0,0-1.38,2.15,13.18,13.18,0,0,0-.47,3.69q0,.47,0,1A9.47,9.47,0,0,0,323.87,294.72Zm3.29-6.66-2.9,7.82a1,1,0,0,0,.54.48.86.86,0,0,0,.68-.13,3.56,3.56,0,0,0,1.47-2.39,15.56,15.56,0,0,0,.44-3.68A9.21,9.21,0,0,0,327.15,288.06Zm-48.51,42.25q1.44-.83,2.2.35a7.57,7.57,0,0,1,.76,3.92,13.85,13.85,0,0,1-.76,4.8,5.26,5.26,0,0,1-2.2,2.89q-1.44.83-2.2-.35a7.55,7.55,0,0,1-.76-3.92,13.8,13.8,0,0,1,.76-4.79A5.27,5.27,0,0,1,278.64,330.31ZM277,339.65l2.92-7.8q-.28-.51-.6-.56a1,1,0,0,0-.67.15,3.46,3.46,0,0,0-1.38,2.15,13.18,13.18,0,0,0-.47,3.69q0,.47,0,1A9.47,9.47,0,0,0,277,339.65Zm3.29-6.66-2.9,7.82a1,1,0,0,0,.54.48.86.86,0,0,0,.68-.13,3.56,3.56,0,0,0,1.47-2.39,15.56,15.56,0,0,0,.44-3.68A9.21,9.21,0,0,0,280.27,333Zm4.81,4.09v-8.7q-.46.75-.89,1.34a14.36,14.36,0,0,1-1.18,1.38v-1.22a17,17,0,0,0,2.07-2.95l1-.59v10.15l2-1.17v1.13l-5.12,3v-1.13Zm6.7-3.87v-8.7q-.46.75-.89,1.34a14.36,14.36,0,0,1-1.18,1.38V326a17,17,0,0,0,2.07-2.95l1-.59v10.15l2-1.17v1.13l-5.12,3V334.4Zm6.95-14.5q1.44-.83,2.2.35a7.57,7.57,0,0,1,.76,3.92,13.85,13.85,0,0,1-.76,4.8,5.26,5.26,0,0,1-2.2,2.89q-1.44.83-2.2-.35a7.55,7.55,0,0,1-.76-3.92,13.8,13.8,0,0,1,.76-4.79A5.27,5.27,0,0,1,298.73,318.71ZM297.08,328l2.92-7.8q-.28-.51-.6-.56a1,1,0,0,0-.67.15,3.46,3.46,0,0,0-1.38,2.15,13.18,13.18,0,0,0-.47,3.69q0,.47,0,1A9.47,9.47,0,0,0,297.08,328Zm3.29-6.66-2.9,7.82a1,1,0,0,0,.54.48.86.86,0,0,0,.68-.13,3.56,3.56,0,0,0,1.47-2.39,15.56,15.56,0,0,0,.44-3.68A9.21,9.21,0,0,0,300.37,321.38Zm5.06-6.54q1.44-.83,2.2.35a7.57,7.57,0,0,1,.76,3.92,13.85,13.85,0,0,1-.76,4.8,5.26,5.26,0,0,1-2.2,2.89q-1.44.83-2.2-.35a7.55,7.55,0,0,1-.76-3.92,13.8,13.8,0,0,1,.76-4.79A5.27,5.27,0,0,1,305.43,314.84Zm-1.65,9.34,2.92-7.8q-.28-.51-.6-.56a1,1,0,0,0-.67.15,3.46,3.46,0,0,0-1.38,2.15,13.18,13.18,0,0,0-.47,3.69q0,.47,0,1A9.47,9.47,0,0,0,303.78,324.18Zm3.29-6.66-2.9,7.82a1,1,0,0,0,.54.48.86.86,0,0,0,.68-.13,3.56,3.56,0,0,0,1.47-2.39,15.56,15.56,0,0,0,.44-3.68A9.21,9.21,0,0,0,307.06,317.52Zm5.06-6.54q1.44-.83,2.2.35a7.57,7.57,0,0,1,.76,3.92,13.85,13.85,0,0,1-.76,4.8,5.26,5.26,0,0,1-2.2,2.89q-1.44.83-2.2-.35a7.55,7.55,0,0,1-.76-3.92,13.8,13.8,0,0,1,.76-4.79A5.27,5.27,0,0,1,312.12,311Zm-1.65,9.34,2.92-7.8q-.28-.51-.6-.56a1,1,0,0,0-.67.15,3.46,3.46,0,0,0-1.38,2.15,13.18,13.18,0,0,0-.47,3.69q0,.47,0,1A9.47,9.47,0,0,0,310.47,320.31Zm3.29-6.66-2.9,7.82a1,1,0,0,0,.54.48.86.86,0,0,0,.68-.13,3.56,3.56,0,0,0,1.47-2.39,15.56,15.56,0,0,0,.44-3.68A9.21,9.21,0,0,0,313.76,313.65Zm4.81,4.09V309q-.46.75-.89,1.34a14.36,14.36,0,0,1-1.18,1.38v-1.22a17,17,0,0,0,2.07-2.95l1-.59v10.15l2-1.17v1.13l-5.12,3v-1.13Zm6.7-3.87v-8.7q-.46.75-.89,1.34a14.36,14.36,0,0,1-1.18,1.38v-1.22a17,17,0,0,0,2.07-2.95l1-.59v10.15l2-1.17v1.13l-5.12,3v-1.13Zm-46.63,34.29q1.44-.83,2.2.35a7.57,7.57,0,0,1,.76,3.92,13.85,13.85,0,0,1-.76,4.8,5.26,5.26,0,0,1-2.2,2.89q-1.44.83-2.2-.35a7.55,7.55,0,0,1-.76-3.92,13.8,13.8,0,0,1,.76-4.79A5.27,5.27,0,0,1,278.64,348.17ZM277,357.5l2.92-7.8q-.28-.51-.6-.56a1,1,0,0,0-.67.15,3.46,3.46,0,0,0-1.38,2.15,13.18,13.18,0,0,0-.47,3.69q0,.47,0,1A9.47,9.47,0,0,0,277,357.5Zm3.29-6.66-2.9,7.82a1,1,0,0,0,.54.48.86.86,0,0,0,.68-.13,3.56,3.56,0,0,0,1.47-2.39,15.56,15.56,0,0,0,.44-3.68A9.21,9.21,0,0,0,280.27,350.84Zm4.81,4.09v-8.7q-.46.75-.89,1.34a14.36,14.36,0,0,1-1.18,1.38v-1.22a17,17,0,0,0,2.07-2.95l1-.59v10.15l2-1.17v1.13l-5.12,3v-1.13Zm6.7-3.87v-8.7q-.46.75-.89,1.34a14.36,14.36,0,0,1-1.18,1.38v-1.22a17,17,0,0,0,2.07-2.95l1-.59v10.15l2-1.17v1.13l-5.12,3v-1.13Zm6.95-14.5q1.44-.83,2.2.35a7.57,7.57,0,0,1,.76,3.92,13.85,13.85,0,0,1-.76,4.8,5.26,5.26,0,0,1-2.2,2.89q-1.44.83-2.2-.35a7.55,7.55,0,0,1-.76-3.92,13.8,13.8,0,0,1,.76-4.79A5.27,5.27,0,0,1,298.73,336.57Zm-1.65,9.34,2.92-7.8q-.28-.51-.6-.56a1,1,0,0,0-.67.15,3.46,3.46,0,0,0-1.38,2.15,13.18,13.18,0,0,0-.47,3.69q0,.47,0,1A9.47,9.47,0,0,0,297.08,345.9Zm3.29-6.66-2.9,7.82a1,1,0,0,0,.54.48.86.86,0,0,0,.68-.13,3.56,3.56,0,0,0,1.47-2.39,15.56,15.56,0,0,0,.44-3.68A9.21,9.21,0,0,0,300.37,339.24Zm4.81,4.09v-8.7q-.46.75-.89,1.34a14.36,14.36,0,0,1-1.18,1.38v-1.22a17,17,0,0,0,2.07-2.95l1-.59v10.15l2-1.17v1.13l-5.12,3v-1.13Zm6.95-14.5q1.44-.83,2.2.35a7.57,7.57,0,0,1,.76,3.92,13.85,13.85,0,0,1-.76,4.8,5.26,5.26,0,0,1-2.2,2.89q-1.44.83-2.2-.35a7.55,7.55,0,0,1-.76-3.92,13.8,13.8,0,0,1,.76-4.79A5.27,5.27,0,0,1,312.12,328.83Zm-1.65,9.34,2.92-7.8q-.28-.51-.6-.56a1,1,0,0,0-.67.15,3.46,3.46,0,0,0-1.38,2.15,13.18,13.18,0,0,0-.47,3.69q0,.47,0,1A9.47,9.47,0,0,0,310.47,338.17Zm3.29-6.66-2.9,7.82a1,1,0,0,0,.54.48.86.86,0,0,0,.68-.13,3.56,3.56,0,0,0,1.47-2.39,15.56,15.56,0,0,0,.44-3.68A9.21,9.21,0,0,0,313.76,331.51Zm5.06-6.54q1.44-.83,2.2.35a7.57,7.57,0,0,1,.76,3.92A13.85,13.85,0,0,1,321,334a5.26,5.26,0,0,1-2.2,2.89q-1.44.83-2.2-.35a7.55,7.55,0,0,1-.76-3.92,13.8,13.8,0,0,1,.76-4.79A5.27,5.27,0,0,1,318.82,325Zm-1.65,9.34,2.92-7.8q-.28-.51-.6-.56a1,1,0,0,0-.67.15,3.46,3.46,0,0,0-1.38,2.15,13.18,13.18,0,0,0-.47,3.69q0,.47,0,1A9.47,9.47,0,0,0,317.17,334.3Zm3.29-6.66-2.9,7.82a1,1,0,0,0,.54.48.86.86,0,0,0,.68-.13,3.56,3.56,0,0,0,1.47-2.39,15.56,15.56,0,0,0,.44-3.68A9.21,9.21,0,0,0,320.46,327.64Zm4.81,4.09V323q-.46.75-.89,1.34a14.36,14.36,0,0,1-1.18,1.38v-1.22a17,17,0,0,0,2.07-2.95l1-.59v10.15l2-1.17v1.13l-5.12,3v-1.13ZM278.64,366q1.44-.83,2.2.35a7.57,7.57,0,0,1,.76,3.92,13.85,13.85,0,0,1-.76,4.8,5.26,5.26,0,0,1-2.2,2.89q-1.44.83-2.2-.35a7.55,7.55,0,0,1-.76-3.92,13.8,13.8,0,0,1,.76-4.79A5.27,5.27,0,0,1,278.64,366ZM277,375.36l2.92-7.8q-.28-.51-.6-.56a1,1,0,0,0-.67.15,3.46,3.46,0,0,0-1.38,2.15,13.18,13.18,0,0,0-.47,3.69q0,.47,0,1A9.47,9.47,0,0,0,277,375.36Zm3.29-6.66-2.9,7.82a1,1,0,0,0,.54.48.86.86,0,0,0,.68-.13,3.56,3.56,0,0,0,1.47-2.39,15.56,15.56,0,0,0,.44-3.68A9.21,9.21,0,0,0,280.27,368.7Zm4.81,4.09v-8.7q-.46.75-.89,1.34A14.36,14.36,0,0,1,283,366.8v-1.22a17,17,0,0,0,2.07-2.95l1-.59V372.2l2-1.17v1.13l-5.12,3V374Zm6.7-3.87v-8.7q-.46.75-.89,1.34a14.36,14.36,0,0,1-1.18,1.38v-1.22a17,17,0,0,0,2.07-2.95l1-.59v10.15l2-1.17v1.13l-5.12,3v-1.13Zm6.95-14.5q1.44-.83,2.2.35a7.57,7.57,0,0,1,.76,3.92,13.85,13.85,0,0,1-.76,4.8,5.26,5.26,0,0,1-2.2,2.89q-1.44.83-2.2-.35a7.55,7.55,0,0,1-.76-3.92,13.8,13.8,0,0,1,.76-4.79A5.27,5.27,0,0,1,298.73,354.42Zm-1.65,9.34L300,356q-.28-.51-.6-.56a1,1,0,0,0-.67.15,3.46,3.46,0,0,0-1.38,2.15,13.18,13.18,0,0,0-.47,3.69q0,.47,0,1A9.47,9.47,0,0,0,297.08,363.76Zm3.29-6.66-2.9,7.82a1,1,0,0,0,.54.48.86.86,0,0,0,.68-.13,3.56,3.56,0,0,0,1.47-2.39,15.56,15.56,0,0,0,.44-3.68A9.21,9.21,0,0,0,300.37,357.1Zm4.81,4.09v-8.7q-.46.75-.89,1.34a14.36,14.36,0,0,1-1.18,1.38V354a17,17,0,0,0,2.07-2.95l1-.59V360.6l2-1.17v1.13l-5.12,3v-1.13Zm6.7-3.87v-8.7q-.46.75-.89,1.34a14.36,14.36,0,0,1-1.18,1.38v-1.22a17,17,0,0,0,2.07-2.95l1-.59v10.15l2-1.17v1.13l-5.12,3v-1.13Zm6.95-14.5q1.44-.83,2.2.35a7.57,7.57,0,0,1,.76,3.92,13.85,13.85,0,0,1-.76,4.8,5.26,5.26,0,0,1-2.2,2.89q-1.44.83-2.2-.35a7.55,7.55,0,0,1-.76-3.92,13.8,13.8,0,0,1,.76-4.79A5.27,5.27,0,0,1,318.82,342.82Zm-1.65,9.34,2.92-7.8q-.28-.51-.6-.56a1,1,0,0,0-.67.15,3.46,3.46,0,0,0-1.38,2.15,13.18,13.18,0,0,0-.47,3.69q0,.47,0,1A9.47,9.47,0,0,0,317.17,352.16Zm3.29-6.66-2.9,7.82a1,1,0,0,0,.54.48.86.86,0,0,0,.68-.13,3.56,3.56,0,0,0,1.47-2.39,15.56,15.56,0,0,0,.44-3.68A9.21,9.21,0,0,0,320.46,345.5Zm5.06-6.54q1.44-.83,2.2.35a7.57,7.57,0,0,1,.76,3.92,13.85,13.85,0,0,1-.76,4.8,5.26,5.26,0,0,1-2.2,2.89q-1.44.83-2.2-.35a7.55,7.55,0,0,1-.76-3.92,13.8,13.8,0,0,1,.76-4.79A5.27,5.27,0,0,1,325.52,339Zm-1.65,9.34,2.92-7.8q-.28-.51-.6-.56a1,1,0,0,0-.67.15,3.46,3.46,0,0,0-1.38,2.15,13.18,13.18,0,0,0-.47,3.69q0,.47,0,1A9.47,9.47,0,0,0,323.87,348.29Zm3.29-6.66-2.9,7.82a1,1,0,0,0,.54.48.86.86,0,0,0,.68-.13,3.56,3.56,0,0,0,1.47-2.39,15.56,15.56,0,0,0,.44-3.68A9.21,9.21,0,0,0,327.15,341.63Zm-48.51,42.25q1.44-.83,2.2.35a7.57,7.57,0,0,1,.76,3.92,13.85,13.85,0,0,1-.76,4.8,5.26,5.26,0,0,1-2.2,2.89q-1.44.83-2.2-.35a7.55,7.55,0,0,1-.76-3.92,13.8,13.8,0,0,1,.76-4.79A5.27,5.27,0,0,1,278.64,383.88ZM277,393.21l2.92-7.8q-.28-.51-.6-.56a1,1,0,0,0-.67.15,3.46,3.46,0,0,0-1.38,2.15,13.18,13.18,0,0,0-.47,3.69q0,.47,0,1A9.47,9.47,0,0,0,277,393.21Zm3.29-6.66-2.9,7.82a1,1,0,0,0,.54.48.86.86,0,0,0,.68-.13,3.56,3.56,0,0,0,1.47-2.39,15.56,15.56,0,0,0,.44-3.68A9.21,9.21,0,0,0,280.27,386.55Zm4.81,4.09v-8.7q-.46.75-.89,1.34a14.36,14.36,0,0,1-1.18,1.38v-1.22a17,17,0,0,0,2.07-2.95l1-.59v10.15l2-1.17V390L283,393v-1.13Zm6.7-3.87v-8.7q-.46.75-.89,1.34a14.36,14.36,0,0,1-1.18,1.38v-1.22a17,17,0,0,0,2.07-2.95l1-.59v10.15l2-1.17v1.13l-5.12,3V388Zm6.95-14.5q1.44-.83,2.2.35a7.57,7.57,0,0,1,.76,3.92,13.85,13.85,0,0,1-.76,4.8,5.26,5.26,0,0,1-2.2,2.89q-1.44.83-2.2-.35a7.55,7.55,0,0,1-.76-3.92,13.8,13.8,0,0,1,.76-4.79A5.27,5.27,0,0,1,298.73,372.28Zm-1.65,9.34,2.92-7.8q-.28-.51-.6-.56a1,1,0,0,0-.67.15,3.46,3.46,0,0,0-1.38,2.15,13.18,13.18,0,0,0-.47,3.69q0,.47,0,1A9.47,9.47,0,0,0,297.08,381.61Zm3.29-6.66-2.9,7.82a1,1,0,0,0,.54.48.86.86,0,0,0,.68-.13,3.56,3.56,0,0,0,1.47-2.39,15.56,15.56,0,0,0,.44-3.68A9.21,9.21,0,0,0,300.37,375Zm5.06-6.54q1.44-.83,2.2.35a7.57,7.57,0,0,1,.76,3.92,13.85,13.85,0,0,1-.76,4.8,5.26,5.26,0,0,1-2.2,2.89q-1.44.83-2.2-.35a7.55,7.55,0,0,1-.76-3.92,13.8,13.8,0,0,1,.76-4.79A5.27,5.27,0,0,1,305.43,368.41Zm-1.65,9.34,2.92-7.8q-.28-.51-.6-.56a1,1,0,0,0-.67.15,3.46,3.46,0,0,0-1.38,2.15,13.18,13.18,0,0,0-.47,3.69q0,.47,0,1A9.47,9.47,0,0,0,303.78,377.75Zm3.29-6.66-2.9,7.82a1,1,0,0,0,.54.48.86.86,0,0,0,.68-.13,3.56,3.56,0,0,0,1.47-2.39,15.56,15.56,0,0,0,.44-3.68A9.21,9.21,0,0,0,307.06,371.08Zm5.06-6.54q1.44-.83,2.2.35a7.57,7.57,0,0,1,.76,3.92,13.85,13.85,0,0,1-.76,4.8,5.26,5.26,0,0,1-2.2,2.89q-1.44.83-2.2-.35a7.55,7.55,0,0,1-.76-3.92,13.8,13.8,0,0,1,.76-4.79A5.27,5.27,0,0,1,312.12,364.54Zm-1.65,9.34,2.92-7.8q-.28-.51-.6-.56a1,1,0,0,0-.67.15,3.46,3.46,0,0,0-1.38,2.15,13.18,13.18,0,0,0-.47,3.69q0,.47,0,1A9.47,9.47,0,0,0,310.47,373.88Zm3.29-6.66-2.9,7.82a1,1,0,0,0,.54.48.86.86,0,0,0,.68-.13,3.56,3.56,0,0,0,1.47-2.39,15.56,15.56,0,0,0,.44-3.68A9.21,9.21,0,0,0,313.76,367.22Zm5.06-6.54q1.44-.83,2.2.35a7.57,7.57,0,0,1,.76,3.92,13.85,13.85,0,0,1-.76,4.8,5.26,5.26,0,0,1-2.2,2.89q-1.44.83-2.2-.35a7.55,7.55,0,0,1-.76-3.92,13.8,13.8,0,0,1,.76-4.79A5.27,5.27,0,0,1,318.82,360.68ZM317.17,370l2.92-7.8q-.28-.51-.6-.56a1,1,0,0,0-.67.15,3.46,3.46,0,0,0-1.38,2.15,13.18,13.18,0,0,0-.47,3.69q0,.47,0,1A9.47,9.47,0,0,0,317.17,370Zm3.29-6.66-2.9,7.82a1,1,0,0,0,.54.48.86.86,0,0,0,.68-.13,3.56,3.56,0,0,0,1.47-2.39,15.56,15.56,0,0,0,.44-3.68A9.21,9.21,0,0,0,320.46,363.35Zm4.81,4.09v-8.7q-.46.75-.89,1.34a14.36,14.36,0,0,1-1.18,1.38v-1.22a17,17,0,0,0,2.07-2.95l1-.59v10.15l2-1.17v1.13l-5.12,3v-1.13Zm-46.63-90.19q1.44-.83,2.2.35a7.57,7.57,0,0,1,.76,3.92,13.85,13.85,0,0,1-.76,4.8,5.26,5.26,0,0,1-2.2,2.89q-1.44.83-2.2-.35a7.55,7.55,0,0,1-.76-3.92,13.8,13.8,0,0,1,.76-4.79A5.27,5.27,0,0,1,278.64,277.25ZM277,286.58l2.92-7.8q-.28-.51-.6-.56a1,1,0,0,0-.67.15,3.46,3.46,0,0,0-1.38,2.15,13.18,13.18,0,0,0-.47,3.69q0,.47,0,1A9.47,9.47,0,0,0,277,286.58Zm3.29-6.66-2.9,7.82a1,1,0,0,0,.54.48.86.86,0,0,0,.68-.13,3.56,3.56,0,0,0,1.47-2.39,15.56,15.56,0,0,0,.44-3.68A9.21,9.21,0,0,0,280.27,279.92Zm4.81,4.09v-8.7q-.46.75-.89,1.34A14.36,14.36,0,0,1,283,278V276.8a17,17,0,0,0,2.07-2.95l1-.59v10.15l2-1.17v1.13l-5.12,3V285.2Zm6.7-3.87v-8.7q-.46.75-.89,1.34a14.36,14.36,0,0,1-1.18,1.38v-1.22a17,17,0,0,0,2.07-2.95l1-.59v10.15l2-1.17v1.13l-5.12,3v-1.13Zm6.95-14.5q1.44-.83,2.2.35a7.57,7.57,0,0,1,.76,3.92,13.85,13.85,0,0,1-.76,4.8,5.26,5.26,0,0,1-2.2,2.89q-1.44.83-2.2-.35a7.55,7.55,0,0,1-.76-3.92,13.8,13.8,0,0,1,.76-4.79A5.27,5.27,0,0,1,298.73,265.65ZM297.08,275l2.92-7.8q-.28-.51-.6-.56a1,1,0,0,0-.67.15,3.46,3.46,0,0,0-1.38,2.15,13.18,13.18,0,0,0-.47,3.69q0,.47,0,1A9.47,9.47,0,0,0,297.08,275Zm3.29-6.66-2.9,7.82a1,1,0,0,0,.54.48.86.86,0,0,0,.68-.13,3.56,3.56,0,0,0,1.47-2.39,15.56,15.56,0,0,0,.44-3.68A9.21,9.21,0,0,0,300.37,268.32Zm5.06-6.54q1.44-.83,2.2.35a7.57,7.57,0,0,1,.76,3.92,13.85,13.85,0,0,1-.76,4.8,5.26,5.26,0,0,1-2.2,2.89q-1.44.83-2.2-.35a7.55,7.55,0,0,1-.76-3.92,13.8,13.8,0,0,1,.76-4.79A5.27,5.27,0,0,1,305.43,261.78Zm-1.65,9.34,2.92-7.8q-.28-.51-.6-.56a1,1,0,0,0-.67.15,3.46,3.46,0,0,0-1.38,2.15,13.18,13.18,0,0,0-.47,3.69q0,.47,0,1A9.47,9.47,0,0,0,303.78,271.12Zm3.29-6.66-2.9,7.82a1,1,0,0,0,.54.48.86.86,0,0,0,.68-.13,3.56,3.56,0,0,0,1.47-2.39,15.56,15.56,0,0,0,.44-3.68A9.21,9.21,0,0,0,307.06,264.45Zm5.06-6.54q1.44-.83,2.2.35a7.57,7.57,0,0,1,.76,3.92,13.85,13.85,0,0,1-.76,4.8,5.26,5.26,0,0,1-2.2,2.89q-1.44.83-2.2-.35a7.55,7.55,0,0,1-.76-3.92,13.8,13.8,0,0,1,.76-4.79A5.27,5.27,0,0,1,312.12,257.91Zm-1.65,9.34,2.92-7.8q-.28-.51-.6-.56a1,1,0,0,0-.67.15,3.46,3.46,0,0,0-1.38,2.15,13.18,13.18,0,0,0-.47,3.69q0,.47,0,1A9.47,9.47,0,0,0,310.47,267.25Zm3.29-6.66-2.9,7.82a1,1,0,0,0,.54.48.86.86,0,0,0,.68-.13,3.56,3.56,0,0,0,1.47-2.39,15.56,15.56,0,0,0,.44-3.68A9.21,9.21,0,0,0,313.76,260.59Zm5.06-6.54q1.44-.83,2.2.35a7.57,7.57,0,0,1,.76,3.92,13.85,13.85,0,0,1-.76,4.8,5.26,5.26,0,0,1-2.2,2.89q-1.44.83-2.2-.35a7.55,7.55,0,0,1-.76-3.92,13.8,13.8,0,0,1,.76-4.79A5.27,5.27,0,0,1,318.82,254Zm-1.65,9.34,2.92-7.8q-.28-.51-.6-.56a1,1,0,0,0-.67.15,3.46,3.46,0,0,0-1.38,2.15A13.18,13.18,0,0,0,317,261q0,.47,0,1A9.47,9.47,0,0,0,317.17,263.38Zm3.29-6.66-2.9,7.82a1,1,0,0,0,.54.48.86.86,0,0,0,.68-.13,3.56,3.56,0,0,0,1.47-2.39,15.56,15.56,0,0,0,.44-3.68A9.21,9.21,0,0,0,320.46,256.72Zm4.81,4.09v-8.7q-.46.75-.89,1.34a14.36,14.36,0,0,1-1.18,1.38V253.6a17,17,0,0,0,2.07-2.95l1-.59v10.15l2-1.17v1.13l-5.12,3V262Z"/><path class="cls-8" d="M300.41,192l110,63.51v9.76l-110,63.51-110-63.51v-9.76Zm0,50.34c-21.94,0-39.72,10.27-39.72,22.93s17.78,22.93,39.72,22.93S340.13,278,340.13,265.3,322.34,242.37,300.41,242.37Z"/><path class="cls-5" d="M300.41,192l110,63.51-110,63.51-110-63.51Zm0,40.58c-21.94,0-39.72,10.27-39.72,22.93s17.78,22.93,39.72,22.93,39.72-10.27,39.72-22.93S322.34,232.61,300.41,232.61Z"/><ellipse class="cls-9" cx="300.41" cy="255.54" rx="39.72" ry="22.93"/><path class="cls-10" d="M300.41,202l110,63.51-110,63.51-110-63.51Zm0,30.58c-21.94,0-39.72,10.27-39.72,22.93s17.78,22.93,39.72,22.93,39.72-10.27,39.72-22.93S322.34,232.61,300.41,232.61Z"/><polygon class="cls-11" points="300.41 192.03 300.41 202.03 410.41 265.54 410.41 255.54 300.41 192.03"/><line class="cls-12" x1="190.41" y1="255.54" x2="300.41" y2="319.05"/><g class="cls-13"><path class="cls-8" d="M300.41,278.47c-19,0-34.93-7.73-38.81-18.05a13.82,13.82,0,0,0-.91,4.88c0,12.66,17.78,22.93,39.72,22.93S340.13,278,340.13,265.3a13.81,13.81,0,0,0-.91-4.88C335.34,270.74,319.44,278.47,300.41,278.47Z"/></g><g class="cls-14"><path class="cls-15" d="M278.64,169.08q1.44-.83,2.2.35a7.57,7.57,0,0,1,.76,3.92,13.85,13.85,0,0,1-.76,4.8,5.26,5.26,0,0,1-2.2,2.89q-1.44.83-2.2-.35a7.55,7.55,0,0,1-.76-3.92,13.8,13.8,0,0,1,.76-4.79A5.27,5.27,0,0,1,278.64,169.08ZM277,178.42l2.92-7.8q-.28-.51-.6-.56a1,1,0,0,0-.67.15,3.46,3.46,0,0,0-1.38,2.15,13.18,13.18,0,0,0-.47,3.69q0,.47,0,1A9.47,9.47,0,0,0,277,178.42Zm3.29-6.66-2.9,7.82a1,1,0,0,0,.54.48.86.86,0,0,0,.68-.13,3.56,3.56,0,0,0,1.47-2.39,15.56,15.56,0,0,0,.44-3.68A9.21,9.21,0,0,0,280.27,171.76Z"/><path class="cls-15" d="M285.09,175.84v-8.7q-.46.75-.89,1.34a14.36,14.36,0,0,1-1.18,1.38v-1.22a17,17,0,0,0,2.07-2.95l1-.59v10.15l2-1.17v1.13l-5.12,3V177Z"/><path class="cls-15" d="M291.78,172v-8.7q-.46.75-.89,1.34a14.36,14.36,0,0,1-1.18,1.38v-1.22a17,17,0,0,0,2.07-2.95l1-.59v10.15l2-1.17v1.13l-5.12,3v-1.13Z"/><path class="cls-15" d="M298.73,157.48q1.44-.83,2.2.35a7.57,7.57,0,0,1,.76,3.92,13.85,13.85,0,0,1-.76,4.8,5.26,5.26,0,0,1-2.2,2.89q-1.44.83-2.2-.35a7.55,7.55,0,0,1-.76-3.92,13.8,13.8,0,0,1,.76-4.79A5.27,5.27,0,0,1,298.73,157.48Zm-1.65,9.34L300,159q-.28-.51-.6-.56a1,1,0,0,0-.67.15,3.46,3.46,0,0,0-1.38,2.15,13.18,13.18,0,0,0-.47,3.69q0,.47,0,1A9.47,9.47,0,0,0,297.08,166.82Zm3.29-6.66-2.9,7.82a1,1,0,0,0,.54.48.86.86,0,0,0,.68-.13,3.56,3.56,0,0,0,1.47-2.39,15.56,15.56,0,0,0,.44-3.68A9.21,9.21,0,0,0,300.37,160.16Z"/><path class="cls-15" d="M305.43,153.62q1.44-.83,2.2.35a7.57,7.57,0,0,1,.76,3.92,13.85,13.85,0,0,1-.76,4.8,5.26,5.26,0,0,1-2.2,2.89q-1.44.83-2.2-.35a7.55,7.55,0,0,1-.76-3.92,13.8,13.8,0,0,1,.76-4.79A5.27,5.27,0,0,1,305.43,153.62ZM303.78,163l2.92-7.8q-.28-.51-.6-.56a1,1,0,0,0-.67.15,3.46,3.46,0,0,0-1.38,2.15,13.18,13.18,0,0,0-.47,3.69q0,.47,0,1A9.47,9.47,0,0,0,303.78,163Zm3.29-6.66-2.9,7.82a1,1,0,0,0,.54.48.86.86,0,0,0,.68-.13,3.56,3.56,0,0,0,1.47-2.39,15.56,15.56,0,0,0,.44-3.68A9.21,9.21,0,0,0,307.06,156.29Z"/><path class="cls-15" d="M311.87,160.38v-8.7q-.46.75-.89,1.34a14.36,14.36,0,0,1-1.18,1.38v-1.22a17,17,0,0,0,2.07-2.95l1-.59v10.15l2-1.17v1.13l-5.12,3v-1.13Z"/><path class="cls-15" d="M318.82,145.88q1.44-.83,2.2.35a7.57,7.57,0,0,1,.76,3.92,13.85,13.85,0,0,1-.76,4.8,5.26,5.26,0,0,1-2.2,2.89q-1.44.83-2.2-.35a7.55,7.55,0,0,1-.76-3.92,13.8,13.8,0,0,1,.76-4.79A5.27,5.27,0,0,1,318.82,145.88Zm-1.65,9.34,2.92-7.8q-.28-.51-.6-.56a1,1,0,0,0-.67.15,3.46,3.46,0,0,0-1.38,2.15,13.18,13.18,0,0,0-.47,3.69q0,.47,0,1A9.47,9.47,0,0,0,317.17,155.22Zm3.29-6.66-2.9,7.82a1,1,0,0,0,.54.48.86.86,0,0,0,.68-.13,3.56,3.56,0,0,0,1.47-2.39,15.56,15.56,0,0,0,.44-3.68A9.21,9.21,0,0,0,320.46,148.56Z"/><path class="cls-15" d="M325.27,152.64v-8.7q-.46.75-.89,1.34a14.36,14.36,0,0,1-1.18,1.38v-1.22a17,17,0,0,0,2.07-2.95l1-.59v10.15l2-1.17V152l-5.12,3v-1.13Z"/><path class="cls-15" d="M278.64,186.94q1.44-.83,2.2.35a7.57,7.57,0,0,1,.76,3.92,13.85,13.85,0,0,1-.76,4.8,5.26,5.26,0,0,1-2.2,2.89q-1.44.83-2.2-.35a7.55,7.55,0,0,1-.76-3.92,13.8,13.8,0,0,1,.76-4.79A5.27,5.27,0,0,1,278.64,186.94ZM277,196.27l2.92-7.8q-.28-.51-.6-.56a1,1,0,0,0-.67.15,3.46,3.46,0,0,0-1.38,2.15,13.18,13.18,0,0,0-.47,3.69q0,.47,0,1A9.47,9.47,0,0,0,277,196.27Zm3.29-6.66-2.9,7.82a1,1,0,0,0,.54.48.86.86,0,0,0,.68-.13,3.56,3.56,0,0,0,1.47-2.39,15.56,15.56,0,0,0,.44-3.68A9.21,9.21,0,0,0,280.27,189.61Z"/><path class="cls-15" d="M285.09,193.7V185q-.46.75-.89,1.34a14.36,14.36,0,0,1-1.18,1.38V186.5a17,17,0,0,0,2.07-2.95l1-.59v10.15l2-1.17v1.13L283,196v-1.13Z"/><path class="cls-15" d="M291.78,189.83v-8.7q-.46.75-.89,1.34a14.36,14.36,0,0,1-1.18,1.38v-1.22a17,17,0,0,0,2.07-2.95l1-.59v10.15l2-1.17v1.13l-5.12,3V191Z"/><path class="cls-15" d="M298.73,175.34q1.44-.83,2.2.35a7.57,7.57,0,0,1,.76,3.92,13.85,13.85,0,0,1-.76,4.8,5.26,5.26,0,0,1-2.2,2.89q-1.44.83-2.2-.35a7.55,7.55,0,0,1-.76-3.92,13.8,13.8,0,0,1,.76-4.79A5.27,5.27,0,0,1,298.73,175.34Zm-1.65,9.34,2.92-7.8q-.28-.51-.6-.56a1,1,0,0,0-.67.15,3.46,3.46,0,0,0-1.38,2.15,13.18,13.18,0,0,0-.47,3.69q0,.47,0,1A9.47,9.47,0,0,0,297.08,184.67Zm3.29-6.66-2.9,7.82a1,1,0,0,0,.54.48.86.86,0,0,0,.68-.13,3.56,3.56,0,0,0,1.47-2.39,15.56,15.56,0,0,0,.44-3.68A9.21,9.21,0,0,0,300.37,178Z"/><path class="cls-15" d="M305.18,182.1v-8.7q-.46.75-.89,1.34a14.36,14.36,0,0,1-1.18,1.38V174.9a17,17,0,0,0,2.07-2.95l1-.59v10.15l2-1.17v1.13l-5.12,3V183.3Z"/><path class="cls-15" d="M311.87,178.23v-8.7q-.46.75-.89,1.34a14.36,14.36,0,0,1-1.18,1.38V171a17,17,0,0,0,2.07-2.95l1-.59v10.15l2-1.17v1.13l-5.12,3v-1.13Z"/><path class="cls-15" d="M318.57,174.37v-8.7q-.46.75-.89,1.34a14.36,14.36,0,0,1-1.18,1.38v-1.22a17,17,0,0,0,2.07-2.95l1-.59v10.15l2-1.17v1.13l-5.12,3v-1.13Z"/><path class="cls-15" d="M325.52,159.87q1.44-.83,2.2.35a7.57,7.57,0,0,1,.76,3.92,13.85,13.85,0,0,1-.76,4.8,5.26,5.26,0,0,1-2.2,2.89q-1.44.83-2.2-.35a7.55,7.55,0,0,1-.76-3.92,13.8,13.8,0,0,1,.76-4.79A5.27,5.27,0,0,1,325.52,159.87Zm-1.65,9.34,2.92-7.8q-.28-.51-.6-.56a1,1,0,0,0-.67.15,3.46,3.46,0,0,0-1.38,2.15,13.18,13.18,0,0,0-.47,3.69q0,.47,0,1A9.47,9.47,0,0,0,323.87,169.21Zm3.29-6.66-2.9,7.82a1,1,0,0,0,.54.48.86.86,0,0,0,.68-.13,3.56,3.56,0,0,0,1.47-2.39,15.56,15.56,0,0,0,.44-3.68A9.21,9.21,0,0,0,327.15,162.55Z"/><path class="cls-15" d="M278.64,204.79q1.44-.83,2.2.35a7.57,7.57,0,0,1,.76,3.92,13.85,13.85,0,0,1-.76,4.8,5.26,5.26,0,0,1-2.2,2.89q-1.44.83-2.2-.35a7.55,7.55,0,0,1-.76-3.92,13.8,13.8,0,0,1,.76-4.79A5.27,5.27,0,0,1,278.64,204.79ZM277,214.13l2.92-7.8q-.28-.51-.6-.56a1,1,0,0,0-.67.15,3.46,3.46,0,0,0-1.38,2.15,13.18,13.18,0,0,0-.47,3.69q0,.47,0,1A9.47,9.47,0,0,0,277,214.13Zm3.29-6.66-2.9,7.82a1,1,0,0,0,.54.48.86.86,0,0,0,.68-.13,3.56,3.56,0,0,0,1.47-2.39,15.56,15.56,0,0,0,.44-3.68A9.21,9.21,0,0,0,280.27,207.47Z"/><path class="cls-15" d="M285.09,211.56v-8.7q-.46.75-.89,1.34a14.36,14.36,0,0,1-1.18,1.38v-1.22a17,17,0,0,0,2.07-2.95l1-.59V211l2-1.17v1.13l-5.12,3v-1.13Z"/><path class="cls-15" d="M291.78,207.69V199q-.46.75-.89,1.34a14.36,14.36,0,0,1-1.18,1.38v-1.22a17,17,0,0,0,2.07-2.95l1-.59V207.1l2-1.17v1.13l-5.12,3v-1.13Z"/><path class="cls-15" d="M298.73,193.19q1.44-.83,2.2.35a7.57,7.57,0,0,1,.76,3.92,13.85,13.85,0,0,1-.76,4.8,5.26,5.26,0,0,1-2.2,2.89q-1.44.83-2.2-.35a7.55,7.55,0,0,1-.76-3.92,13.8,13.8,0,0,1,.76-4.79A5.27,5.27,0,0,1,298.73,193.19Zm-1.65,9.34,2.92-7.8q-.28-.51-.6-.56a1,1,0,0,0-.67.15,3.46,3.46,0,0,0-1.38,2.15,13.18,13.18,0,0,0-.47,3.69q0,.47,0,1A9.47,9.47,0,0,0,297.08,202.53Zm3.29-6.66-2.9,7.82a1,1,0,0,0,.54.48.86.86,0,0,0,.68-.13,3.56,3.56,0,0,0,1.47-2.39,15.56,15.56,0,0,0,.44-3.68A9.21,9.21,0,0,0,300.37,195.87Z"/><path class="cls-15" d="M305.43,189.33q1.44-.83,2.2.35a7.57,7.57,0,0,1,.76,3.92,13.85,13.85,0,0,1-.76,4.8,5.26,5.26,0,0,1-2.2,2.89q-1.44.83-2.2-.35a7.55,7.55,0,0,1-.76-3.92,13.8,13.8,0,0,1,.76-4.79A5.27,5.27,0,0,1,305.43,189.33Zm-1.65,9.34,2.92-7.8q-.28-.51-.6-.56a1,1,0,0,0-.67.15A3.46,3.46,0,0,0,304,192.6a13.18,13.18,0,0,0-.47,3.69q0,.47,0,1A9.47,9.47,0,0,0,303.78,198.66Zm3.29-6.66-2.9,7.82a1,1,0,0,0,.54.48.86.86,0,0,0,.68-.13,3.56,3.56,0,0,0,1.47-2.39,15.56,15.56,0,0,0,.44-3.68A9.21,9.21,0,0,0,307.06,192Z"/><path class="cls-15" d="M312.12,185.46q1.44-.83,2.2.35a7.57,7.57,0,0,1,.76,3.92,13.85,13.85,0,0,1-.76,4.8,5.26,5.26,0,0,1-2.2,2.89q-1.44.83-2.2-.35a7.55,7.55,0,0,1-.76-3.92,13.8,13.8,0,0,1,.76-4.79A5.27,5.27,0,0,1,312.12,185.46Zm-1.65,9.34,2.92-7.8q-.28-.51-.6-.56a1,1,0,0,0-.67.15,3.46,3.46,0,0,0-1.38,2.15,13.18,13.18,0,0,0-.47,3.69q0,.47,0,1A9.47,9.47,0,0,0,310.47,194.8Zm3.29-6.66-2.9,7.82a1,1,0,0,0,.54.48.86.86,0,0,0,.68-.13,3.56,3.56,0,0,0,1.47-2.39,15.56,15.56,0,0,0,.44-3.68A9.21,9.21,0,0,0,313.76,188.13Z"/><path class="cls-15" d="M318.57,192.22v-8.7q-.46.75-.89,1.34a14.36,14.36,0,0,1-1.18,1.38V185a17,17,0,0,0,2.07-2.95l1-.59v10.15l2-1.17v1.13l-5.12,3v-1.13Z"/><path class="cls-15" d="M325.27,188.36v-8.7q-.46.75-.89,1.34a14.36,14.36,0,0,1-1.18,1.38v-1.22a17,17,0,0,0,2.07-2.95l1-.59v10.15l2-1.17v1.13l-5.12,3v-1.13Z"/><path class="cls-15" d="M278.64,222.65q1.44-.83,2.2.35a7.57,7.57,0,0,1,.76,3.92,13.85,13.85,0,0,1-.76,4.8,5.26,5.26,0,0,1-2.2,2.89q-1.44.83-2.2-.35a7.55,7.55,0,0,1-.76-3.92,13.8,13.8,0,0,1,.76-4.79A5.27,5.27,0,0,1,278.64,222.65ZM277,232l2.92-7.8q-.28-.51-.6-.56a1,1,0,0,0-.67.15,3.46,3.46,0,0,0-1.38,2.15,13.18,13.18,0,0,0-.47,3.69q0,.47,0,1A9.47,9.47,0,0,0,277,232Zm3.29-6.66-2.9,7.82a1,1,0,0,0,.54.48.86.86,0,0,0,.68-.13,3.56,3.56,0,0,0,1.47-2.39,15.56,15.56,0,0,0,.44-3.68A9.21,9.21,0,0,0,280.27,225.32Z"/><path class="cls-15" d="M285.09,229.41v-8.7q-.46.75-.89,1.34a14.36,14.36,0,0,1-1.18,1.38v-1.22a17,17,0,0,0,2.07-2.95l1-.59v10.15l2-1.17v1.13l-5.12,3v-1.13Z"/><path class="cls-15" d="M291.78,225.54v-8.7q-.46.75-.89,1.34a14.36,14.36,0,0,1-1.18,1.38v-1.22a17,17,0,0,0,2.07-2.95l1-.59V225l2-1.17v1.13l-5.12,3v-1.13Z"/><path class="cls-15" d="M298.73,211q1.44-.83,2.2.35a7.57,7.57,0,0,1,.76,3.92,13.85,13.85,0,0,1-.76,4.8,5.26,5.26,0,0,1-2.2,2.89q-1.44.83-2.2-.35a7.55,7.55,0,0,1-.76-3.92,13.8,13.8,0,0,1,.76-4.79A5.27,5.27,0,0,1,298.73,211Zm-1.65,9.34,2.92-7.8q-.28-.51-.6-.56a1,1,0,0,0-.67.15,3.46,3.46,0,0,0-1.38,2.15,13.18,13.18,0,0,0-.47,3.69q0,.47,0,1A9.47,9.47,0,0,0,297.08,220.38Zm3.29-6.66-2.9,7.82a1,1,0,0,0,.54.48.86.86,0,0,0,.68-.13,3.56,3.56,0,0,0,1.47-2.39,15.56,15.56,0,0,0,.44-3.68A9.21,9.21,0,0,0,300.37,213.72Z"/><path class="cls-15" d="M305.18,217.81v-8.7q-.46.75-.89,1.34a14.36,14.36,0,0,1-1.18,1.38v-1.22a17,17,0,0,0,2.07-2.95l1-.59v10.15l2-1.17v1.13l-5.12,3V219Z"/><path class="cls-15" d="M312.12,203.32q1.44-.83,2.2.35a7.57,7.57,0,0,1,.76,3.92,13.85,13.85,0,0,1-.76,4.8,5.26,5.26,0,0,1-2.2,2.89q-1.44.83-2.2-.35a7.55,7.55,0,0,1-.76-3.92,13.8,13.8,0,0,1,.76-4.79A5.27,5.27,0,0,1,312.12,203.32Zm-1.65,9.34,2.92-7.8q-.28-.51-.6-.56a1,1,0,0,0-.67.15,3.46,3.46,0,0,0-1.38,2.15,13.18,13.18,0,0,0-.47,3.69q0,.47,0,1A9.47,9.47,0,0,0,310.47,212.65Zm3.29-6.66-2.9,7.82a1,1,0,0,0,.54.48.86.86,0,0,0,.68-.13,3.56,3.56,0,0,0,1.47-2.39,15.56,15.56,0,0,0,.44-3.68A9.21,9.21,0,0,0,313.76,206Z"/><path class="cls-15" d="M318.82,199.45q1.44-.83,2.2.35a7.57,7.57,0,0,1,.76,3.92,13.85,13.85,0,0,1-.76,4.8,5.26,5.26,0,0,1-2.2,2.89q-1.44.83-2.2-.35a7.55,7.55,0,0,1-.76-3.92,13.8,13.8,0,0,1,.76-4.79A5.27,5.27,0,0,1,318.82,199.45Zm-1.65,9.34,2.92-7.8q-.28-.51-.6-.56a1,1,0,0,0-.67.15,3.46,3.46,0,0,0-1.38,2.15,13.18,13.18,0,0,0-.47,3.69q0,.47,0,1A9.47,9.47,0,0,0,317.17,208.79Zm3.29-6.66-2.9,7.82a1,1,0,0,0,.54.48.86.86,0,0,0,.68-.13,3.56,3.56,0,0,0,1.47-2.39,15.56,15.56,0,0,0,.44-3.68A9.21,9.21,0,0,0,320.46,202.12Z"/><path class="cls-15" d="M325.27,206.21v-8.7q-.46.75-.89,1.34a14.36,14.36,0,0,1-1.18,1.38V199a17,17,0,0,0,2.07-2.95l1-.59v10.15l2-1.17v1.13l-5.12,3v-1.13Z"/><path class="cls-15" d="M278.64,240.5q1.44-.83,2.2.35a7.57,7.57,0,0,1,.76,3.92,13.85,13.85,0,0,1-.76,4.8,5.26,5.26,0,0,1-2.2,2.89q-1.44.83-2.2-.35a7.55,7.55,0,0,1-.76-3.92,13.8,13.8,0,0,1,.76-4.79A5.27,5.27,0,0,1,278.64,240.5ZM277,249.84l2.92-7.8q-.28-.51-.6-.56a1,1,0,0,0-.67.15,3.46,3.46,0,0,0-1.38,2.15,13.18,13.18,0,0,0-.47,3.69q0,.47,0,1A9.47,9.47,0,0,0,277,249.84Zm3.29-6.66-2.9,7.82a1,1,0,0,0,.54.48.86.86,0,0,0,.68-.13,3.56,3.56,0,0,0,1.47-2.39,15.56,15.56,0,0,0,.44-3.68A9.21,9.21,0,0,0,280.27,243.18Z"/><path class="cls-15" d="M285.09,247.27v-8.7q-.46.75-.89,1.34a14.36,14.36,0,0,1-1.18,1.38v-1.22a17,17,0,0,0,2.07-2.95l1-.59v10.15l2-1.17v1.13l-5.12,3v-1.13Z"/><path class="cls-15" d="M291.78,243.4v-8.7q-.46.75-.89,1.34a14.36,14.36,0,0,1-1.18,1.38V236.2a17,17,0,0,0,2.07-2.95l1-.59v10.15l2-1.17v1.13l-5.12,3V244.6Z"/><path class="cls-15" d="M298.73,228.9q1.44-.83,2.2.35a7.57,7.57,0,0,1,.76,3.92,13.85,13.85,0,0,1-.76,4.8,5.26,5.26,0,0,1-2.2,2.89q-1.44.83-2.2-.35a7.55,7.55,0,0,1-.76-3.92,13.8,13.8,0,0,1,.76-4.79A5.27,5.27,0,0,1,298.73,228.9Zm-1.65,9.34,2.92-7.8q-.28-.51-.6-.56a1,1,0,0,0-.67.15,3.46,3.46,0,0,0-1.38,2.15,13.18,13.18,0,0,0-.47,3.69q0,.47,0,1A9.47,9.47,0,0,0,297.08,238.24Zm3.29-6.66-2.9,7.82a1,1,0,0,0,.54.48.86.86,0,0,0,.68-.13,3.56,3.56,0,0,0,1.47-2.39,15.56,15.56,0,0,0,.44-3.68A9.21,9.21,0,0,0,300.37,231.58Z"/><path class="cls-15" d="M305.18,235.67V227q-.46.75-.89,1.34a14.36,14.36,0,0,1-1.18,1.38v-1.22a17,17,0,0,0,2.07-2.95l1-.59v10.15l2-1.17V235l-5.12,3v-1.13Z"/><path class="cls-15" d="M311.87,231.8v-8.7q-.46.75-.89,1.34a14.36,14.36,0,0,1-1.18,1.38V224.6a17,17,0,0,0,2.07-2.95l1-.59v10.15l2-1.17v1.13l-5.12,3V233Z"/><path class="cls-15" d="M318.82,217.31q1.44-.83,2.2.35a7.57,7.57,0,0,1,.76,3.92,13.85,13.85,0,0,1-.76,4.8,5.26,5.26,0,0,1-2.2,2.89q-1.44.83-2.2-.35a7.55,7.55,0,0,1-.76-3.92,13.8,13.8,0,0,1,.76-4.79A5.27,5.27,0,0,1,318.82,217.31Zm-1.65,9.34,2.92-7.8q-.28-.51-.6-.56a1,1,0,0,0-.67.15,3.46,3.46,0,0,0-1.38,2.15,13.18,13.18,0,0,0-.47,3.69q0,.47,0,1A9.47,9.47,0,0,0,317.17,226.64Zm3.29-6.66-2.9,7.82a1,1,0,0,0,.54.48.86.86,0,0,0,.68-.13,3.56,3.56,0,0,0,1.47-2.39,15.56,15.56,0,0,0,.44-3.68A9.21,9.21,0,0,0,320.46,220Z"/><path class="cls-15" d="M325.52,213.44q1.44-.83,2.2.35a7.57,7.57,0,0,1,.76,3.92,13.85,13.85,0,0,1-.76,4.8,5.26,5.26,0,0,1-2.2,2.89q-1.44.83-2.2-.35a7.55,7.55,0,0,1-.76-3.92,13.8,13.8,0,0,1,.76-4.79A5.27,5.27,0,0,1,325.52,213.44Zm-1.65,9.34,2.92-7.8q-.28-.51-.6-.56a1,1,0,0,0-.67.15,3.46,3.46,0,0,0-1.38,2.15,13.18,13.18,0,0,0-.47,3.69q0,.47,0,1A9.47,9.47,0,0,0,323.87,222.77Zm3.29-6.66-2.9,7.82a1,1,0,0,0,.54.48.86.86,0,0,0,.68-.13,3.56,3.56,0,0,0,1.47-2.39,15.56,15.56,0,0,0,.44-3.68A9.21,9.21,0,0,0,327.15,216.11Z"/><path class="cls-15" d="M278.64,258.36q1.44-.83,2.2.35a7.57,7.57,0,0,1,.76,3.92,13.85,13.85,0,0,1-.76,4.8,5.26,5.26,0,0,1-2.2,2.89q-1.44.83-2.2-.35a7.55,7.55,0,0,1-.76-3.92,13.8,13.8,0,0,1,.76-4.79A5.27,5.27,0,0,1,278.64,258.36ZM277,267.7l2.92-7.8q-.28-.51-.6-.56a1,1,0,0,0-.67.15,3.46,3.46,0,0,0-1.38,2.15,13.18,13.18,0,0,0-.47,3.69q0,.47,0,1A9.47,9.47,0,0,0,277,267.7Zm3.29-6.66-2.9,7.82a1,1,0,0,0,.54.48.86.86,0,0,0,.68-.13,3.56,3.56,0,0,0,1.47-2.39,15.56,15.56,0,0,0,.44-3.68A9.21,9.21,0,0,0,280.27,261Z"/><path class="cls-15" d="M285.09,265.12v-8.7q-.46.75-.89,1.34a14.36,14.36,0,0,1-1.18,1.38v-1.22a17,17,0,0,0,2.07-2.95l1-.59v10.15l2-1.17v1.13l-5.12,3v-1.13Z"/><path class="cls-15" d="M291.78,261.26v-8.7q-.46.75-.89,1.34a14.36,14.36,0,0,1-1.18,1.38v-1.22a17,17,0,0,0,2.07-2.95l1-.59v10.15l2-1.17v1.13l-5.12,3v-1.13Z"/><path class="cls-15" d="M298.73,246.76q1.44-.83,2.2.35a7.57,7.57,0,0,1,.76,3.92,13.85,13.85,0,0,1-.76,4.8,5.26,5.26,0,0,1-2.2,2.89q-1.44.83-2.2-.35a7.55,7.55,0,0,1-.76-3.92,13.8,13.8,0,0,1,.76-4.79A5.27,5.27,0,0,1,298.73,246.76Zm-1.65,9.34,2.92-7.8q-.28-.51-.6-.56a1,1,0,0,0-.67.15,3.46,3.46,0,0,0-1.38,2.15,13.18,13.18,0,0,0-.47,3.69q0,.47,0,1A9.47,9.47,0,0,0,297.08,256.1Zm3.29-6.66-2.9,7.82a1,1,0,0,0,.54.48.86.86,0,0,0,.68-.13,3.56,3.56,0,0,0,1.47-2.39,15.56,15.56,0,0,0,.44-3.68A9.21,9.21,0,0,0,300.37,249.43Z"/><path class="cls-15" d="M305.43,242.89q1.44-.83,2.2.35a7.57,7.57,0,0,1,.76,3.92,13.85,13.85,0,0,1-.76,4.8,5.26,5.26,0,0,1-2.2,2.89q-1.44.83-2.2-.35a7.55,7.55,0,0,1-.76-3.92,13.8,13.8,0,0,1,.76-4.79A5.27,5.27,0,0,1,305.43,242.89Zm-1.65,9.34,2.92-7.8q-.28-.51-.6-.56a1,1,0,0,0-.67.15,3.46,3.46,0,0,0-1.38,2.15,13.18,13.18,0,0,0-.47,3.69q0,.47,0,1A9.47,9.47,0,0,0,303.78,252.23Zm3.29-6.66-2.9,7.82a1,1,0,0,0,.54.48.86.86,0,0,0,.68-.13,3.56,3.56,0,0,0,1.47-2.39,15.56,15.56,0,0,0,.44-3.68A9.21,9.21,0,0,0,307.06,245.57Z"/><path class="cls-15" d="M312.12,239q1.44-.83,2.2.35a7.57,7.57,0,0,1,.76,3.92,13.85,13.85,0,0,1-.76,4.8,5.26,5.26,0,0,1-2.2,2.89q-1.44.83-2.2-.35a7.55,7.55,0,0,1-.76-3.92,13.8,13.8,0,0,1,.76-4.79A5.27,5.27,0,0,1,312.12,239Zm-1.65,9.34,2.92-7.8q-.28-.51-.6-.56a1,1,0,0,0-.67.15,3.46,3.46,0,0,0-1.38,2.15,13.18,13.18,0,0,0-.47,3.69q0,.47,0,1A9.47,9.47,0,0,0,310.47,248.36Zm3.29-6.66-2.9,7.82a1,1,0,0,0,.54.48.86.86,0,0,0,.68-.13,3.56,3.56,0,0,0,1.47-2.39,15.56,15.56,0,0,0,.44-3.68A9.21,9.21,0,0,0,313.76,241.7Z"/><path class="cls-15" d="M318.82,235.16q1.44-.83,2.2.35a7.57,7.57,0,0,1,.76,3.92,13.85,13.85,0,0,1-.76,4.8,5.26,5.26,0,0,1-2.2,2.89q-1.44.83-2.2-.35a7.55,7.55,0,0,1-.76-3.92,13.8,13.8,0,0,1,.76-4.79A5.27,5.27,0,0,1,318.82,235.16Zm-1.65,9.34,2.92-7.8q-.28-.51-.6-.56a1,1,0,0,0-.67.15,3.46,3.46,0,0,0-1.38,2.15,13.18,13.18,0,0,0-.47,3.69q0,.47,0,1A9.47,9.47,0,0,0,317.17,244.5Zm3.29-6.66-2.9,7.82a1,1,0,0,0,.54.48.86.86,0,0,0,.68-.13,3.56,3.56,0,0,0,1.47-2.39,15.56,15.56,0,0,0,.44-3.68A9.21,9.21,0,0,0,320.46,237.83Z"/><path class="cls-15" d="M325.27,241.92v-8.7q-.46.75-.89,1.34a14.36,14.36,0,0,1-1.18,1.38v-1.22a17,17,0,0,0,2.07-2.95l1-.59v10.15l2-1.17v1.13l-5.12,3v-1.13Z"/><path class="cls-15" d="M278.64,151.73q1.44-.83,2.2.35a7.57,7.57,0,0,1,.76,3.92,13.85,13.85,0,0,1-.76,4.8,5.26,5.26,0,0,1-2.2,2.89q-1.44.83-2.2-.35a7.55,7.55,0,0,1-.76-3.92,13.8,13.8,0,0,1,.76-4.79A5.27,5.27,0,0,1,278.64,151.73ZM277,161.06l2.92-7.8q-.28-.51-.6-.56a1,1,0,0,0-.67.15,3.46,3.46,0,0,0-1.38,2.15,13.18,13.18,0,0,0-.47,3.69q0,.47,0,1A9.47,9.47,0,0,0,277,161.06Zm3.29-6.66-2.9,7.82a1,1,0,0,0,.54.48.86.86,0,0,0,.68-.13,3.56,3.56,0,0,0,1.47-2.39,15.56,15.56,0,0,0,.44-3.68A9.21,9.21,0,0,0,280.27,154.4Z"/><path class="cls-15" d="M285.09,158.49v-8.7q-.46.75-.89,1.34a14.36,14.36,0,0,1-1.18,1.38v-1.22a17,17,0,0,0,2.07-2.95l1-.59v10.15l2-1.17v1.13l-5.12,3v-1.13Z"/><path class="cls-15" d="M291.78,154.62v-8.7q-.46.75-.89,1.34a14.36,14.36,0,0,1-1.18,1.38v-1.22a17,17,0,0,0,2.07-2.95l1-.59V154l2-1.17V154l-5.12,3v-1.13Z"/><path class="cls-15" d="M298.73,140.13q1.44-.83,2.2.35a7.57,7.57,0,0,1,.76,3.92,13.85,13.85,0,0,1-.76,4.8,5.26,5.26,0,0,1-2.2,2.89q-1.44.83-2.2-.35a7.55,7.55,0,0,1-.76-3.92,13.8,13.8,0,0,1,.76-4.79A5.27,5.27,0,0,1,298.73,140.13Zm-1.65,9.34,2.92-7.8q-.28-.51-.6-.56a1,1,0,0,0-.67.15,3.46,3.46,0,0,0-1.38,2.15,13.18,13.18,0,0,0-.47,3.69q0,.47,0,1A9.47,9.47,0,0,0,297.08,149.46Zm3.29-6.66-2.9,7.82a1,1,0,0,0,.54.48.86.86,0,0,0,.68-.13,3.56,3.56,0,0,0,1.47-2.39,15.56,15.56,0,0,0,.44-3.68A9.21,9.21,0,0,0,300.37,142.8Z"/><path class="cls-15" d="M305.43,136.26q1.44-.83,2.2.35a7.57,7.57,0,0,1,.76,3.92,13.85,13.85,0,0,1-.76,4.8,5.26,5.26,0,0,1-2.2,2.89q-1.44.83-2.2-.35a7.55,7.55,0,0,1-.76-3.92,13.8,13.8,0,0,1,.76-4.79A5.27,5.27,0,0,1,305.43,136.26Zm-1.65,9.34,2.92-7.8q-.28-.51-.6-.56a1,1,0,0,0-.67.15,3.46,3.46,0,0,0-1.38,2.15,13.18,13.18,0,0,0-.47,3.69q0,.47,0,1A9.47,9.47,0,0,0,303.78,145.6Zm3.29-6.66-2.9,7.82a1,1,0,0,0,.54.48.86.86,0,0,0,.68-.13,3.56,3.56,0,0,0,1.47-2.39,15.56,15.56,0,0,0,.44-3.68A9.21,9.21,0,0,0,307.06,138.94Z"/><path class="cls-15" d="M312.12,132.4q1.44-.83,2.2.35a7.57,7.57,0,0,1,.76,3.92,13.85,13.85,0,0,1-.76,4.8,5.26,5.26,0,0,1-2.2,2.89q-1.44.83-2.2-.35a7.55,7.55,0,0,1-.76-3.92,13.8,13.8,0,0,1,.76-4.79A5.27,5.27,0,0,1,312.12,132.4Zm-1.65,9.34,2.92-7.8q-.28-.51-.6-.56a1,1,0,0,0-.67.15,3.46,3.46,0,0,0-1.38,2.15,13.18,13.18,0,0,0-.47,3.69q0,.47,0,1A9.47,9.47,0,0,0,310.47,141.73Zm3.29-6.66-2.9,7.82a1,1,0,0,0,.54.48.86.86,0,0,0,.68-.13,3.56,3.56,0,0,0,1.47-2.39,15.56,15.56,0,0,0,.44-3.68A9.21,9.21,0,0,0,313.76,135.07Z"/><path class="cls-15" d="M318.82,128.53q1.44-.83,2.2.35a7.57,7.57,0,0,1,.76,3.92,13.85,13.85,0,0,1-.76,4.8,5.26,5.26,0,0,1-2.2,2.89q-1.44.83-2.2-.35a7.55,7.55,0,0,1-.76-3.92,13.8,13.8,0,0,1,.76-4.79A5.27,5.27,0,0,1,318.82,128.53Zm-1.65,9.34,2.92-7.8q-.28-.51-.6-.56a1,1,0,0,0-.67.15,3.46,3.46,0,0,0-1.38,2.15,13.18,13.18,0,0,0-.47,3.69q0,.47,0,1A9.47,9.47,0,0,0,317.17,137.87Zm3.29-6.66-2.9,7.82a1,1,0,0,0,.54.48.86.86,0,0,0,.68-.13,3.56,3.56,0,0,0,1.47-2.39,15.56,15.56,0,0,0,.44-3.68A9.21,9.21,0,0,0,320.46,131.2Z"/><path class="cls-15" d="M325.27,135.29v-8.7q-.46.75-.89,1.34a14.36,14.36,0,0,1-1.18,1.38v-1.22a17,17,0,0,0,2.07-2.95l1-.59v10.15l2-1.17v1.13l-5.12,3v-1.13Z"/></g><path class="cls-16" d="M338.39,139v-9.27H334c-6.6-7.38-19.93-12.43-35.31-12.43s-28.71,5-35.31,12.43H259v10.5c0,12.66,17.78,22.93,39.72,22.93s39.72-10.27,39.72-22.93C338.45,139.82,338.43,139.42,338.39,139Z"/><ellipse class="cls-4" cx="298.73" cy="129.74" rx="39.72" ry="22.93"/><g class="cls-13"><path class="cls-17" d="M298.73,116.57c19,0,34.93,7.73,38.81,18.05a13.82,13.82,0,0,0,.91-4.88c0-12.66-17.78-22.93-39.72-22.93S259,117.07,259,129.74a13.81,13.81,0,0,0,.91,4.88C263.8,124.3,279.7,116.57,298.73,116.57Z"/></g><ellipse class="cls-18" cx="298.73" cy="129.74" rx="39.72" ry="22.93"/></g></g></svg>